<svg width="20" height="20" viewBox="0 0 14 18" fill="none" xmlns="http://www.w3.org/2000/svg"><path fill-rule="evenodd" clip-rule="evenodd" d="M1.5618e-07 17.4371V2.24995C1.5618e-07 1.65323 0.245833 1.08094 0.683417 0.658995C1.121 0.237048 1.7145 0 2.33333 0L11.6667 0C12.2855 0 12.879 0.237048 13.3166 0.658995C13.7542 1.08094 14 1.65323 14 2.24995V17.4371C14.0001 17.5348 13.9738 17.6308 13.9237 17.7157C13.8736 17.8006 13.8014 17.8714 13.7143 17.9213C13.6272 17.9711 13.5281 17.9982 13.4268 17.9999C13.3255 18.0016 13.2255 17.9778 13.1367 17.931L7 14.7023L0.863333 17.931C0.774468 17.9778 0.674472 18.0016 0.573189 17.9999C0.471906 17.9982 0.372828 17.9711 0.285707 17.9213C0.198586 17.8714 0.126425 17.8006 0.0763287 17.7157C0.0262319 17.6308 -7.39594e-05 17.5348 1.5618e-07 17.4371ZM10.3297 6.5856C10.4392 6.47998 10.5007 6.33673 10.5007 6.18736C10.5007 6.03799 10.4392 5.89474 10.3297 5.78912C10.2201 5.6835 10.0716 5.62416 9.91667 5.62416C9.76176 5.62416 9.6132 5.6835 9.50367 5.78912L6.41667 8.76692L5.07967 7.47658C5.02543 7.42428 4.96104 7.3828 4.89018 7.35449C4.81932 7.32619 4.74337 7.31162 4.66667 7.31162C4.58997 7.31162 4.51402 7.32619 4.44315 7.35449C4.37229 7.3828 4.3079 7.42428 4.25367 7.47658C4.19943 7.52888 4.15641 7.59096 4.12706 7.65929C4.0977 7.72762 4.0826 7.80086 4.0826 7.87482C4.0826 7.94878 4.0977 8.02202 4.12706 8.09035C4.15641 8.15868 4.19943 8.22076 4.25367 8.27306L6.00367 9.96052C6.05785 10.0129 6.12222 10.0545 6.19309 10.0828C6.26396 10.1112 6.33994 10.1258 6.41667 10.1258C6.49339 10.1258 6.56937 10.1112 6.64024 10.0828C6.71111 10.0545 6.77548 10.0129 6.82967 9.96052L10.3297 6.5856Z" fill="#27DEBF"></path></svg>