  <svg class="svg" viewBox="0 0 25 31" fill="none" xmlns="http://www.w3.org/2000/svg"><path d="M24.9956 3.31246C24.9956 2.97495 24.8513 2.77963 24.5708 2.77792C23.6084 2.77449 22.6443 2.71967 21.6835 2.8019C21.4612 2.82075 21.2969 2.77449 21.116 2.66998C19.8898 1.95554 18.6701 1.22911 17.4306 0.543796C15.7613 -0.377951 13.7518 -0.108966 12.3612 1.20684C11.6859 1.84418 11.0371 2.51065 10.3866 3.1754C10.2439 3.31932 10.1526 3.33988 9.9734 3.22509C8.49325 2.26565 7.0048 1.31991 5.51635 0.372467C5.09321 0.101768 4.91897 0.1446 4.66343 0.581488C3.67888 2.26393 2.69598 3.94695 1.71474 5.63054C1.46583 6.05714 1.5123 6.24561 1.92714 6.5163L12.1704 13.2084C12.7628 13.5956 12.9155 13.5613 13.2955 12.9583L13.3734 12.8298C13.8447 12.0708 14.3193 11.3118 14.7856 10.5477C14.8752 10.402 14.9432 10.3506 15.0975 10.4671C15.2767 10.6025 15.4775 10.7087 15.6683 10.8286C16.8266 11.5551 17.9815 11.5431 19.1298 10.8029C19.5911 10.5071 20.0507 10.2073 20.5087 9.90347C20.6 9.8435 20.6597 9.80067 20.7377 9.93259C21.0347 10.4414 21.4977 10.6128 22.0503 10.6076C22.8385 10.6008 23.6267 10.6093 24.4149 10.6059C24.8446 10.6025 24.9956 10.4449 24.9973 10.0063C24.9984 8.89948 24.9984 7.79384 24.9973 6.68935C24.9973 5.56372 24.999 4.43809 24.9956 3.31246ZM4.94387 1.87502C5.24421 1.27537 5.23757 1.27365 5.7918 1.63002L5.96438 1.74138C5.68228 1.99152 5.38692 2.07376 5.0567 2.06348C4.91234 2.05834 4.86422 2.03607 4.94387 1.87502ZM3.29612 6.31242C3.09367 6.18221 2.9045 6.05372 2.7087 5.9355C2.62573 5.88582 2.63403 5.83956 2.67717 5.76931C2.79333 5.57743 2.9045 5.38211 3.03725 5.15424C3.32432 5.56372 3.38074 5.82414 3.29612 6.31242ZM12.5869 12.3757L11.8949 11.9251C12.2335 11.6476 12.5919 11.5585 13.0383 11.651L12.5869 12.3757ZM14.0239 10.0765C14.0041 10.0989 13.9879 10.1243 13.9758 10.1519C13.7584 10.6145 13.5278 10.8989 12.9105 10.7207C12.3247 10.5528 11.7406 10.8235 11.276 11.2518C11.1449 11.3718 11.0636 11.3906 10.9126 11.2912C8.70786 9.8475 6.4998 8.4072 4.28842 6.97032C4.14239 6.87438 4.10589 6.79214 4.15069 6.61567C4.35479 5.82071 4.18885 5.10285 3.66615 4.48606C3.55664 4.35757 3.53838 4.2719 3.62965 4.12799C3.84979 3.77277 4.05998 3.4124 4.26021 3.0469C4.33986 2.89956 4.41287 2.86358 4.57715 2.90641C5.33548 3.10344 6.02411 2.93725 6.60821 2.39757C6.73764 2.27764 6.81729 2.27935 6.95336 2.36673C8.41803 3.31132 9.88712 4.25077 11.3606 5.18508C11.51 5.28103 11.5714 5.32215 11.3822 5.45749C11.0454 5.69564 10.8844 6.06228 10.7948 6.46491C10.7185 6.554 10.8661 6.72704 10.6853 6.77672C10.5841 6.66707 10.5857 6.51973 10.5442 6.38781C10.2986 5.59456 9.61996 5.11312 8.80853 5.15767C8.06679 5.19879 7.4296 5.73505 7.29353 6.47176C7.15746 7.20847 7.28523 7.85952 7.90915 8.32211C8.49159 8.75557 9.11551 8.78812 9.75271 8.45574C10.1676 8.24158 10.4082 7.87323 10.5475 7.42606C10.5841 7.31298 10.594 7.18963 10.6571 7.0834C10.7268 7.0183 10.7633 7.06798 10.7964 7.12795C10.9143 7.68134 11.2262 8.06854 11.7041 8.35123C12.4608 8.80011 13.1976 9.28668 13.9476 9.74756C14.1019 9.84179 14.1633 9.92403 14.0239 10.0765ZM20.6299 3.65683C20.527 3.86757 20.5353 4.10571 20.5353 4.33701C20.5353 5.73505 20.5303 7.13137 20.5386 8.52941C20.5402 8.72301 20.4888 8.8378 20.3262 8.9406C19.752 9.29868 19.1895 9.67731 18.622 10.044C17.8122 10.5682 16.9925 10.5802 16.1745 10.0679C14.8105 9.21815 13.4514 8.36151 12.0874 7.51001C11.7738 7.31469 11.6178 7.03714 11.6709 6.65679C11.7141 6.33984 11.9646 6.08627 12.2849 6.00917C12.5139 5.95606 12.7031 6.04858 12.8889 6.16679C13.7794 6.73675 14.6722 7.30613 15.5671 7.87494C15.6235 7.91092 15.6816 7.95032 15.7397 7.98459C16.04 8.16106 16.2956 8.13193 16.4383 7.90406C16.581 7.6762 16.5063 7.39179 16.2076 7.19991C14.5239 6.12282 12.8386 5.04688 11.1516 3.97208C11.1018 3.94124 11.057 3.90355 10.9823 3.85043C11.6427 3.19253 12.2716 2.53292 12.9337 1.911C14.0969 0.817921 15.6733 0.610614 17.0489 1.37474C18.2205 2.02579 19.3704 2.71453 20.5336 3.38271C20.6564 3.45295 20.7029 3.50778 20.6299 3.65683ZM23.8872 9.68074C23.2367 9.66875 22.5829 9.68074 21.9308 9.67389C21.5906 9.67046 21.4313 9.50599 21.4313 9.15476C21.428 7.50658 21.428 5.8584 21.4313 4.21022C21.4313 3.86928 21.589 3.69453 21.9026 3.6911C22.573 3.68425 23.245 3.69624 23.9171 3.68425C24.1062 3.68253 24.1112 3.77334 24.1112 3.92068C24.1062 4.84585 24.1079 5.77103 24.1079 6.6962C24.1079 7.62137 24.1046 8.52427 24.1129 9.43917C24.1145 9.61906 24.073 9.68417 23.8872 9.68074Z" fill="#FF8B00"></path><path d="M10.709 6.76857C10.7804 6.68634 10.709 6.54585 10.7953 6.46875C10.7953 6.68976 10.7953 6.91078 10.7969 7.13179L10.709 7.07183C10.6282 6.97131 10.6282 6.87023 10.709 6.76857Z" fill="#FCFCFC"></path><path d="M10.7007 6.76258C10.6991 6.86366 10.6991 6.96475 10.6991 7.06583C10.5995 7.83338 10.246 8.40391 9.50597 8.6489C8.81899 8.87677 8.19673 8.74142 7.67403 8.22572C7.15133 7.71003 7.01194 6.79685 7.34216 6.08069C7.65412 5.40224 8.36433 5.00133 9.11436 5.08014C9.89758 5.16238 10.4717 5.69178 10.6526 6.49702C10.6725 6.5844 10.6841 6.67349 10.7007 6.76258Z" fill="#FF8B00"></path><path d="M22.7683 8.75523C22.5294 8.76208 22.322 8.55306 22.3203 8.30292C22.3187 8.05278 22.5194 7.84205 22.76 7.84376C23.0007 7.84547 23.1915 8.02194 23.2048 8.2618C23.218 8.53079 23.0255 8.75009 22.7683 8.75523Z" fill="#FF8B00"></path><path d="M8.05471 6.90545C8.05969 6.37434 8.43636 5.98542 8.93915 5.99228C9.44194 5.99913 9.8153 6.40518 9.81032 6.92601C9.80534 7.44685 9.41373 7.84776 8.91924 7.8409C8.42475 7.83405 8.05139 7.43828 8.05471 6.90545Z" fill="#FEFEFE"></path><path d="M12.5 5.5L11 3.5C11.4 3.9 11.8333 3 12 2.5C12 2.1 12.6667 1.66667 13 1.5H14C14.3333 1.33333 15.1 1 15.5 1C15.9 1 16.6667 1.33333 17 1.5C17.5 1.83333 18.6 2.5 19 2.5C19.4 2.5 20.1667 3.16667 20.5 3.5V7.5V9C20 9.33333 18.9 10 18.5 10C18.1 10 17.3333 10.3333 17 10.5L16.5 10L14.5 9L12.5 8L12 6.5V6L12.5 5.5Z" fill="#FF8B00" stroke="#FF8B00"></path><path d="M20.9777 22.1275C20.8118 21.5724 20.45 21.2091 19.8809 21.144C19.6452 21.1166 19.6336 21.0241 19.6336 20.8305C19.6402 19.3228 19.6104 17.8151 19.6469 16.3074C19.6701 15.3651 19.0296 14.7192 18.1286 14.7346C16.4061 14.7621 14.6821 14.7432 12.9596 14.7432C11.2074 14.7432 9.45506 14.7432 7.70277 14.7432C6.80174 14.7449 6.25249 15.3172 6.25083 16.2509C6.24917 17.517 6.24751 18.7831 6.25415 20.051C6.25581 20.2309 6.22096 20.2891 6.03345 20.2823C5.54726 20.2634 5.06106 20.2703 4.57321 20.2771C4.44212 20.2788 4.37409 20.2428 4.30771 20.1126C4.04719 19.6089 3.63235 19.3571 3.07314 19.3588C2.22687 19.3622 1.38059 19.3571 0.532656 19.3605C0.159299 19.3622 0.00165937 19.5233 0.00165937 19.9105C-0.000553122 22.7648 -0.000553122 25.6197 0.00165937 28.4752C0.00165937 28.8624 0.15764 29.0268 0.532656 29.0286C1.38889 29.032 2.24512 29.0354 3.10301 29.0268C3.74021 29.02 4.18492 28.6859 4.39068 28.0537C4.4471 27.8824 4.5085 27.8875 4.64456 27.9526C5.95546 28.5831 7.25972 29.229 8.58224 29.827C10.829 30.8429 12.9563 30.5894 14.8214 28.9395C16.7994 27.1868 18.701 25.3399 20.6342 23.5306C21.0457 23.1451 21.1386 22.662 20.9777 22.1275ZM2.99847 28.1102C2.38617 28.112 1.77386 28.1017 1.1599 28.1171C0.947498 28.1222 0.881123 28.0726 0.884442 27.8395C0.896057 26.6248 0.88942 25.4084 0.88942 24.1937C0.88942 22.979 0.896057 21.7625 0.884442 20.5478C0.881123 20.3182 0.94086 20.2634 1.15824 20.2685C1.77054 20.284 2.38451 20.272 2.99681 20.2754C3.41165 20.2754 3.56763 20.4296 3.56763 20.8476C3.56874 23.076 3.56874 25.3056 3.56763 27.5363C3.56763 27.956 3.41331 28.1102 2.99847 28.1102ZM12.0503 15.7849C12.0503 15.665 12.1366 15.6735 12.2146 15.6735C12.7091 15.6718 13.2036 15.6752 13.6981 15.6701C13.8142 15.6701 13.8441 15.7164 13.8441 15.8294C13.8391 16.388 13.8408 16.9448 13.8408 17.5033L13.7943 17.5787C13.2285 16.8951 12.6593 16.9019 12.0503 17.6301V15.7849ZM7.13527 19.8111C7.14688 18.6444 7.13859 17.4793 7.13859 16.3126C7.14025 15.8089 7.273 15.6735 7.76417 15.6735C8.79629 15.6718 9.82842 15.6804 10.8589 15.6667C11.0929 15.6632 11.1725 15.7061 11.1659 15.9699C11.146 16.7426 11.1609 17.517 11.1592 18.2914C11.1576 18.5124 11.1941 18.7112 11.4048 18.8294C11.6156 18.9476 11.7964 18.8619 11.9723 18.7352C12.2428 18.5398 12.5232 18.3582 12.7887 18.1544C12.9115 18.0601 12.9961 18.067 13.1156 18.1578C13.3894 18.3651 13.6748 18.557 13.9536 18.7574C14.1245 18.8808 14.2987 18.9425 14.4962 18.8294C14.6937 18.7163 14.7285 18.5467 14.7285 18.3445C14.7269 17.5393 14.7352 16.7358 14.7219 15.9322C14.7186 15.7181 14.7816 15.6667 14.9824 15.6684C16.0527 15.6787 17.123 15.6718 18.1949 15.6735C18.6031 15.6735 18.7492 15.8294 18.7492 16.2595C18.7508 17.9179 18.7492 19.5764 18.7525 21.2348C18.7525 21.3719 18.7442 21.4696 18.5965 21.5432C16.5013 22.5895 14.4077 23.6414 12.3158 24.6991C12.2892 24.7077 12.262 24.7146 12.2345 24.7197C12.6493 23.6112 12.4054 22.6243 11.5741 22.0127C11.2653 21.7802 10.8926 21.6559 10.5104 21.658C9.5762 21.6597 8.64197 21.6546 7.70775 21.6632C7.53518 21.6649 7.47876 21.6015 7.39745 21.4439C7.13029 20.923 7.13029 20.3731 7.13527 19.8111ZM19.9738 22.9053C19.0567 23.7619 18.1407 24.6191 17.2259 25.4769C16.2883 26.3541 15.3591 27.2416 14.4099 28.1034C12.7721 29.5905 10.9385 29.8938 8.94232 28.9823C7.51526 28.3313 6.1048 27.6357 4.68439 26.9658C4.52177 26.8904 4.4554 26.803 4.45871 26.6094C4.46867 25.7562 4.46203 24.9013 4.46203 24.0463C4.46203 23.1914 4.46867 22.3176 4.45871 21.4541C4.4554 21.2417 4.51513 21.18 4.71923 21.1869C5.13739 21.2023 5.55721 21.1954 5.97537 21.1903C6.25415 21.1869 6.43668 21.3154 6.51965 21.5929C6.58104 21.7934 6.64078 21.9938 6.70715 22.1926C6.7951 22.4633 6.96933 22.5832 7.25806 22.5798C8.30789 22.5672 9.35882 22.5666 10.4109 22.5781C11.2522 22.5849 11.8031 23.3764 11.5044 24.1457C11.3135 24.634 10.9435 24.8756 10.4357 24.8807C9.85165 24.8858 9.26755 24.8807 8.68346 24.8824C8.58721 24.8841 8.48765 24.8841 8.39307 24.903C8.17403 24.9441 8.0529 25.0914 8.04128 25.3193C8.02967 25.5472 8.14582 25.7236 8.3715 25.7853C8.46276 25.811 8.56398 25.8093 8.66023 25.8093C9.72056 25.811 10.7826 25.8076 11.8429 25.8127C12.0469 25.8148 12.2484 25.766 12.4303 25.6705C14.7036 24.5203 16.9786 23.3736 19.2553 22.2303C19.325 22.1943 19.398 22.1652 19.466 22.1275C19.7083 21.9973 19.9257 22.0247 20.0783 22.2645C20.231 22.5044 20.1746 22.7185 19.9738 22.9053Z" fill="#FF8B00"></path><path d="M15.4015 21.6631C15.1875 21.6631 14.9734 21.6699 14.761 21.6631C14.4657 21.6511 14.303 21.4798 14.3047 21.1988C14.3064 20.9178 14.4524 20.7568 14.7395 20.7499C15.1858 20.7396 15.6305 20.7396 16.0769 20.7499C16.3474 20.7568 16.515 20.9469 16.5133 21.2073C16.5117 21.4678 16.3407 21.6494 16.0686 21.6614C15.8463 21.6716 15.6239 21.6631 15.4015 21.6631Z" fill="#FF8B00"></path><path d="M2.24013 27.1942C1.99952 27.1977 1.80371 26.9938 1.79708 26.7316C1.7953 26.6713 1.80527 26.6111 1.82638 26.5547C1.8475 26.4984 1.87934 26.447 1.92002 26.4035C1.9607 26.3601 2.0094 26.3255 2.06324 26.3018C2.11708 26.2781 2.17497 26.2658 2.23349 26.2656C2.47244 26.2639 2.68152 26.4798 2.68484 26.7248C2.68815 26.9698 2.47907 27.1908 2.24013 27.1942Z" fill="#FF8B00"></path><path d="M6.5 21.5L4 21L4.5 26.5L6.5 28L8 28.5L9.5 29L11 29.5H12.5L14.5 28L16 26.5L17.5 25C17.8333 25 18.7 24.7 19.5 23.5C20.3 22.3 19.5 22.3333 19 22.5L17 23.5L15.5 24L12 25.5L11.5 25V24V23L10.5 22.5H7.5L7 22L6.5 21.5Z" fill="#FF8B00" stroke="#FF8B00"></path></svg>